PathFileType	4	(X/Y/Z)	 s10c0101.trc
DataRate	CameraRate	NumFrames	NumMarkers	Units	OrigDataRate	OrigDataStartFrame	OrigNumFrames
200	200	6	49	mm	200	1501	2000
Frame#	Time	racr			lacr			c7			jug			rlel			rdr			llel			ldr			s2			lic			ric			lasi			rasi			rpsi			lpsi			rgt			lgt			rth1			rth2			rth3			rth4			rlfc			rmfc			rsh1			rsh2			rsh3			rsh4			rlmal			rmmal			rcal			rtoe			rmt5			lth1			lth2			lth4			lth3			llfc			lmfc			llmal			lcal			lmt5			lsh1			lsh2			lsh3			lsh4			ltoe			SBIKE			LBIKE			RBIKE			
		X1	Y1	Z1	X2	Y2	Z2	X3	Y3	Z3	X4	Y4	Z4	X5	Y5	Z5	X6	Y6	Z6	X7	Y7	Z7	X8	Y8	Z8	X9	Y9	Z9	X10	Y10	Z10	X11	Y11	Z11	X12	Y12	Z12	X13	Y13	Z13	X14	Y14	Z14	X15	Y15	Z15	X16	Y16	Z16	X17	Y17	Z17	X18	Y18	Z18	X19	Y19	Z19	X20	Y20	Z20	X21	Y21	Z21	X22	Y22	Z22	X23	Y23	Z23	X24	Y24	Z24	X25	Y25	Z25	X26	Y26	Z26	X27	Y27	Z27	X28	Y28	Z28	X29	Y29	Z29	X30	Y30	Z30	X31	Y31	Z31	X32	Y32	Z32	X33	Y33	Z33	X34	Y34	Z34	X35	Y35	Z35	X36	Y36	Z36	X37	Y37	Z37	X38	Y38	Z38	X39	Y39	Z39	X40	Y40	Z40	X41	Y41	Z41	X42	Y42	Z42	X43	Y43	Z43	X44	Y44	Z44	X45	Y45	Z45	X46	Y46	Z46	X47	Y47	Z47	X48	Y48	Z48	X49	Y49	Z49	
1501	7.5050	436.512961	1255.656214	-19.827747	406.203468	1278.183173	-345.556108	380.465666	1327.329717	-171.587225	392.531721	1183.751162	-188.513359	468.760575	1000.764174	79.124538	640.315397	876.961282	-1.033638	443.577305	999.577917	-414.761461	651.373253	892.753151	-361.082369	-112.579090	1084.003464	-185.052840	51.195424	1123.631495	-335.416082	55.429680	1097.149327	-26.596335	89.911882	1044.857842	-304.487734	60.988692	1014.818960	-49.853309	-80.852323	1136.554858	-120.680529	-73.687165	1151.862704	-231.403182	-49.949951	968.777601	-9.380900	-6.781257	1004.339154	-385.221032	26.323837	841.038416	11.655023	92.859638	782.069122	0.480615	118.004248	701.461520	-13.514603	123.675235	804.150503	-1.719292	182.454727	617.963416	-31.027984	178.162505	608.957196	-146.065921	142.087299	510.160808	-7.699203	161.517206	424.540127	-22.300894	136.478957	342.252108	-30.168366	193.313487	427.207650	-44.437123	127.191336	243.219495	-47.986497	151.305589	255.042945	-126.231027	77.865064	228.134507	-99.163715	316.637032	183.402147	-82.550446	228.569766	164.248158	-25.655487	120.249103	964.445656	-386.596299	202.885988	971.811527	-359.688765	203.902936	1001.897644	-337.262266	283.936810	935.612649	-351.751588	385.838927	887.232844	-316.193652	362.869341	858.115014	-195.321185	125.696809	620.468858	-368.433766	67.570437	633.040221	-329.027974	134.711442	468.558344	-390.381055	302.436698	805.214097	-365.616686	263.523052	727.006168	-358.387374	190.738302	677.218491	-369.165185	283.028218	710.233077	-331.115675	202.775325	417.908143	-331.913615	-204.904521	834.643597	-223.344538	-78.299627	81.787699	-423.487611	-102.637255	80.246144	-24.278882	
1502	7.5100	436.949279	1255.303600	-21.136924	405.762819	1277.621416	-347.828825	381.035708	1327.193454	-173.171582	391.598707	1183.091079	-188.193361	469.037025	1001.273981	77.960737	640.416096	876.904587	-1.075792	442.991839	998.692361	-415.497456	651.118845	892.940547	-361.059342	-111.143545	1084.400541	-181.074083	51.420326	1125.479962	-336.466621	57.478391	1097.180353	-26.713283	88.834320	1046.241516	-302.534533	62.488920	1015.493600	-51.093463	-79.916122	1137.604867	-119.224012	-73.555020	1152.691988	-230.020401	-49.856123	969.281953	-9.488259	-7.729514	1008.541963	-385.231335	24.751391	841.270588	12.222773	90.018988	781.130068	1.190270	113.527342	699.892894	-12.523807	121.121390	802.533032	-1.345863	176.275744	615.264957	-30.390444	170.929544	605.892584	-145.890141	135.194332	507.766611	-7.528850	153.937949	421.908377	-22.348405	128.129725	339.962326	-30.419283	185.823765	424.381387	-44.122016	118.530600	240.526254	-48.396043	143.033381	252.168592	-126.389975	69.375704	226.212757	-99.844053	307.238406	178.129566	-82.796951	218.896108	160.201757	-26.109397	120.199275	970.188047	-386.883463	202.239321	978.926070	-359.031745	202.439490	1008.958510	-336.270650	284.150537	944.684940	-350.702176	388.588551	899.359143	-315.336157	367.328725	871.299539	-193.230967	136.815579	625.861072	-367.868962	78.728719	637.558406	-328.708531	145.494506	472.940573	-389.287176	308.978728	815.964981	-363.956096	272.254766	736.717036	-356.901593	200.722131	685.023144	-368.286457	291.932419	720.367099	-329.774543	212.890861	421.585555	-331.272596	-204.830292	834.634694	-223.320608	-78.276918	81.790554	-423.467570	-102.720400	80.342725	-24.193349	
1503	7.5150	437.421793	1254.892869	-22.428212	405.767362	1276.951696	-350.024740	381.605257	1327.053051	-174.743328	390.835928	1182.261841	-187.957886	469.221148	1001.566446	76.501778	640.512110	876.868307	-1.086084	441.949539	998.007173	-416.646635	650.916103	893.027299	-360.926748	-109.011163	1087.441588	-180.972474	51.625263	1127.230989	-336.909983	59.657185	1097.261916	-27.151188	85.395382	1045.488779	-296.696289	63.892498	1015.969620	-52.448929	-78.438817	1137.840539	-116.479350	-73.216730	1153.948973	-229.043503	-49.064281	970.346307	-9.393282	-8.634225	1012.689842	-385.548617	23.087700	841.774019	12.630748	87.390607	780.450028	1.897075	109.394511	698.729221	-11.783986	118.860674	801.265424	-0.750174	170.650738	612.949834	-29.768139	164.603639	603.753035	-145.868017	128.567472	505.809606	-7.405130	146.266541	419.756821	-22.403957	119.347455	338.067235	-30.779129	178.376068	421.838167	-43.946239	109.355471	238.517616	-48.878618	134.653045	249.987267	-126.677074	60.314617	224.912734	-100.400554	297.523720	173.621897	-83.139386	208.912075	156.736050	-26.612741	119.891531	975.649744	-387.079691	201.487302	985.981141	-358.631361	200.782478	1015.446011	-335.215471	284.214573	953.788272	-350.628110	391.897011	911.829213	-313.087527	372.333320	883.107578	-191.624515	146.481720	630.194973	-366.836168	88.217566	640.553975	-327.486515	156.274803	476.719656	-388.429505	315.097442	826.474077	-362.373181	280.722073	746.205896	-355.778888	210.435253	692.311500	-366.682690	300.507941	730.111284	-327.666267	223.187384	425.231187	-330.344285	-204.805079	834.853196	-223.485663	-78.244008	81.794118	-423.412941	-102.679087	80.355384	-24.153044	
1504	7.5200	437.902995	1254.432907	-23.688769	405.877477	1276.166352	-352.035814	382.147370	1326.940264	-176.318306	390.192600	1181.588468	-188.035343	469.353896	1001.908530	74.869787	640.634778	876.781192	-1.118133	441.746127	997.153648	-417.229851	650.765812	893.022552	-360.749270	-111.672023	1087.978112	-183.659152	52.132046	1129.161263	-337.550591	61.748235	1097.389429	-27.823592	82.392406	1045.010283	-291.917749	65.004035	1016.235185	-53.792371	-77.360782	1139.055459	-115.389512	-72.750583	1155.227049	-228.408741	-48.571785	971.259841	-8.893539	-9.392248	1016.682381	-386.153400	21.571518	842.409311	12.902012	84.754658	779.862450	2.421438	105.637679	697.905730	-11.009084	116.877578	800.353341	-0.096401	165.704931	610.970384	-29.110829	159.253156	602.705195	-145.806579	122.192160	504.198322	-7.245883	138.528654	417.952172	-22.407994	110.321470	336.841768	-31.364095	170.878220	419.576735	-43.673836	99.941655	236.889137	-49.627805	127.470521	249.230125	-127.471603	51.001240	223.880515	-101.288911	287.580060	169.876593	-83.516058	198.600311	153.991019	-27.181617	119.280180	980.633351	-387.160149	200.493025	992.525730	-358.187831	199.180067	1021.624841	-334.186468	284.002702	962.361238	-350.681727	394.206078	924.440009	-312.415019	376.127120	894.873301	-189.871937	155.529852	634.243279	-366.483191	97.607985	644.152702	-327.252577	166.924994	480.079996	-387.650383	320.907089	836.765972	-360.759691	288.960252	755.616220	-354.903413	220.036099	700.214304	-366.661224	308.937593	740.099942	-326.787809	234.175556	429.231605	-329.509774	-205.033696	834.872853	-223.357341	-78.237255	81.842947	-423.393673	-102.649148	80.391113	-24.135826	
1505	7.5250	438.369312	1253.845626	-24.990826	406.255036	1275.418268	-353.984288	382.761610	1326.898435	-177.791207	389.769890	1180.798904	-188.126651	469.401964	1001.970935	73.042790	640.709273	876.719821	-1.184960	441.602812	996.594209	-417.902109	650.611125	892.938518	-360.558584	-110.860857	1089.427142	-183.148472	52.770311	1131.051089	-338.316687	63.755764	1097.514746	-28.626496	79.799873	1044.774575	-288.135074	66.096666	1016.405305	-55.058758	-76.250186	1140.282938	-114.533073	-72.169549	1156.442090	-228.015820	-47.510913	971.723139	-9.463717	-9.648831	1021.036061	-387.631208	20.199966	843.127666	13.143344	82.915949	780.067645	3.363693	102.201208	697.398139	-10.257845	114.884839	799.712968	0.459367	161.606023	609.193668	-28.407349	154.800138	602.666077	-145.678620	116.205067	503.157860	-7.162420	130.967616	416.607393	-22.480828	101.268261	336.016987	-32.098510	163.501269	417.727739	-43.364406	90.368237	235.945827	-50.482925	118.181252	248.676491	-127.945465	41.518897	223.503769	-102.380418	277.455083	166.902891	-83.800475	188.182269	151.944270	-27.648416	118.545297	985.331613	-387.129282	199.386721	998.630241	-357.845900	197.406810	1027.438638	-333.582666	283.557622	970.392051	-350.742856	394.422537	935.884551	-312.618274	379.505455	906.745563	-188.371089	164.199167	638.143314	-365.678558	105.314795	646.386789	-327.378925	177.470463	482.946681	-386.689616	326.449500	847.063254	-359.992740	296.571891	764.526843	-354.131985	228.675172	707.865799	-366.146876	316.503117	749.721132	-325.845117	245.185559	433.020979	-328.694483	-204.865931	834.785376	-223.249211	-78.243583	81.906412	-423.445817	-102.538860	80.304839	-24.182683	
1506	7.5300	438.787544	1253.232925	-26.364688	406.891200	1274.650862	-355.838882	383.322640	1326.818681	-179.240951	389.554139	1180.329351	-188.805828	469.224039	1002.035990	71.012172	640.743647	876.696544	-1.272462	441.757657	995.973021	-418.338638	650.474460	892.797484	-360.436589	-110.376732	1089.633001	-182.548404	53.476888	1132.709720	-339.255847	65.400259	1097.489273	-29.647357	77.592261	1044.750202	-285.284428	66.742780	1016.889142	-57.112925	-75.644492	1141.677665	-115.758177	-71.545642	1157.746150	-228.100837	-46.694460	972.269357	-9.749898	-10.189731	1024.691178	-388.725463	18.782623	843.829200	13.102338	80.572070	779.626290	3.591329	99.169621	697.112679	-9.632799	113.030808	799.237183	0.832794	158.308249	607.804971	-27.564084	152.215192	602.762161	-145.006905	110.447174	502.590721	-7.142063	123.593304	415.890426	-22.554758	92.223146	335.918970	-32.849070	156.527084	416.219069	-43.003916	80.668710	235.657328	-51.528822	108.738168	248.754925	-128.505042	32.042380	223.744702	-103.465358	267.192980	164.494105	-84.186759	177.578481	150.491217	-28.271831	117.697047	989.668386	-387.280544	198.166141	1004.172524	-357.637979	195.647781	1032.538302	-333.188077	282.876887	977.700092	-350.835716	396.714070	947.910320	-310.542775	381.952487	918.008050	-187.438967	172.237965	641.167186	-364.298679	112.602122	647.422063	-326.529250	188.062108	485.354389	-385.761531	331.178913	856.032232	-358.945556	302.989292	772.971327	-353.824988	235.833953	715.192621	-365.821726	322.918793	758.365147	-325.177104	256.409929	436.348191	-327.926450	-204.834832	834.803669	-223.106606	-78.256522	81.938994	-423.489883	-102.562547	80.315364	-24.200244	
